# xmcd
#
# Track frame offsets:
#	150
#	16958
#	32771
#	40697
#
# Disc length: 767 seconds
#
# Revision: 0
# Processed by: cddbd v1.5.1PL2 Copyright (c) Steve Scherf et al.
# Submitted via: dBpowerAMP V4.0
#
DISCID=2402fd04
DTITLE=Sasha - Goodbye
DYEAR=2006
DGENRE=Pop
TTITLE0=Goodbye (radio mix)
TTITLE1=Goodbye (radio edit)
TTITLE2=So Far Away (unplugged)
TTITLE3=Goodbye (instrumental)
EXTD=
EXTT0=
EXTT1=
EXTT2=
EXTT3=
PLAYORDER=
